<svg width="16" height="16" viewBox="0 0 16 16" fill="none" xmlns="http://www.w3.org/2000/svg">
<path d="M13.6596 2.34771C12.1504 0.836114 10.1406 0.00194475 7.99696 0C3.59106 0 0.00363458 3.58418 4.37757e-06 7.98982C-0.00219968 10.1262 0.827951 12.1368 2.33695 13.6485C3.84621 15.1604 5.85345 15.9971 7.9897 15.9971H8.0085V15.9956C12.3828 15.9956 15.9959 12.4105 16 8.00486C16.0021 5.86913 15.1691 3.85969 13.6596 2.34771ZM8.34675 12.2276C8.25431 12.3201 8.12492 12.3734 7.99333 12.3734C7.86199 12.3734 7.7326 12.3196 7.63899 12.227C7.54642 12.1342 7.49327 12.005 7.4934 11.8732C7.49353 11.7413 7.5542 11.6125 7.64677 11.5205C7.74025 11.4278 7.88073 11.3742 8.00483 11.3732C8.13422 11.3745 8.25801 11.428 8.3509 11.5211C8.44399 11.6134 8.49546 11.742 8.49533 11.8739C8.4952 12.0061 8.44036 12.1349 8.34675 12.2276ZM8.49572 9.87442C8.49546 10.1502 8.27117 10.3737 7.99501 10.3737C7.71951 10.3734 7.49521 10.1495 7.49534 9.87351L7.50442 4.37427C7.50455 4.09928 7.63326 3.87554 8.00642 3.87466C8.13909 3.87534 8.26232 3.92694 8.35583 4.02123C8.45021 4.11575 8.50091 4.24125 8.50078 4.37492L8.49572 9.87442Z" fill="#DDDDDD"/>
</svg>
