<svg width="26" height="26" viewBox="0 0 26 26" fill="none" xmlns="http://www.w3.org/2000/svg">
<path d="M5.95801 9.75004C5.09605 9.75004 4.2694 10.0925 3.65991 10.7019C3.05042 11.3114 2.70801 12.1381 2.70801 13C2.70801 13.862 3.05042 14.6886 3.65991 15.2981C4.2694 15.9076 5.09605 16.25 5.95801 16.25C6.81996 16.25 7.64661 15.9076 8.2561 15.2981C8.8656 14.6886 9.20801 13.862 9.20801 13C9.20801 12.1381 8.8656 11.3114 8.2561 10.7019C7.64661 10.0925 6.81996 9.75004 5.95801 9.75004ZM20.0413 2.70837C19.6145 2.70837 19.1919 2.79244 18.7976 2.95577C18.4033 3.11909 18.045 3.35849 17.7432 3.66028C17.4415 3.96207 17.2021 4.32034 17.0387 4.71465C16.8754 5.10896 16.7913 5.53158 16.7913 5.95837C16.7913 6.38517 16.8754 6.80779 17.0387 7.2021C17.2021 7.5964 17.4415 7.95468 17.7432 8.25647C18.045 8.55826 18.4033 8.79766 18.7976 8.96098C19.1919 9.12431 19.6145 9.20837 20.0413 9.20837C20.4681 9.20837 20.8908 9.12431 21.2851 8.96098C21.6794 8.79766 22.0376 8.55826 22.3394 8.25647C22.6412 7.95468 22.8806 7.5964 23.044 7.2021C23.2073 6.80779 23.2913 6.38517 23.2913 5.95837C23.2913 5.53158 23.2073 5.10896 23.044 4.71465C22.8806 4.32034 22.6412 3.96207 22.3394 3.66028C22.0376 3.35849 21.6794 3.11909 21.2851 2.95577C20.8908 2.79244 20.4681 2.70837 20.0413 2.70837ZM20.0413 16.7917C19.1794 16.7917 18.3527 17.1341 17.7432 17.7436C17.1338 18.3531 16.7913 19.1798 16.7913 20.0417C16.7913 20.9037 17.1338 21.7303 17.7432 22.3398C18.3527 22.9493 19.1794 23.2917 20.0413 23.2917C20.9033 23.2917 21.7299 22.9493 22.3394 22.3398C22.9489 21.7303 23.2913 20.9037 23.2913 20.0417C23.2913 19.1798 22.9489 18.3531 22.3394 17.7436C21.7299 17.1341 20.9033 16.7917 20.0413 16.7917Z" fill="white"/>
<path d="M20.8679 6.65821L19.2148 5.25854L13.5809 11.9167H5.95801V14.0834H13.5803L19.2148 20.7415L20.8679 19.3419L15.5022 13L20.8679 6.65821Z" fill="white"/>
</svg>
